<svg xmlns="http://www.w3.org/2000/svg" width="18" height="18" viewBox="0 0 18 18">
  <defs>
    <mask id="catCutout">
      <rect width="18" height="18" fill="#fff"/>
      <path fill="none" stroke="#000" stroke-linecap="round" stroke-linejoin="round" stroke-width="1.1" d="M5.55 10.5V7.2c0-.42.52-.58.75-.23l1.12 1.71c.28.43.78.65 1.28.56l1.47-.27c.41-.08.72-.41.76-.83l.31-2.75c.05-.44.58-.62.89-.31l2.17 2.21c1.03 1.04 1.25 2.62.54 3.9"/>
      <path fill="none" stroke="#000" stroke-linecap="round" stroke-width=".95" d="M7.2 12.05c.42.48 1.13.48 1.55 0M11.05 11.35c.44.48 1.14.34 1.48-.18"/>
    </mask>
  </defs>
  <g transform="translate(9 9) scale(1.2) translate(-9 -9)">
    <path fill="#000" mask="url(#catCutout)" d="M2.55 8.9c0-3.67 3.04-6.08 6.7-6.08 3.82 0 6.18 2.47 6.18 5.77 0 2.86-1.85 5.77-6.36 5.77-3.91 0-6.52-1.83-6.52-5.46Z"/>
    <path fill="#000" d="M14.55 11.45c.46.13 1.23.44 1.63.74.25.19.24.57-.02.75-.37.26-.97.57-1.43.69-.23.06-.47-.06-.56-.29-.16-.43-.29-.91-.31-1.36-.02-.35.34-.63.69-.53Z"/>
  </g>
</svg>
